<?xml version="1.0" encoding="utf-8"?>
<!-- Generator: Adobe Illustrator 23.0.0, SVG Export Plug-In . SVG Version: 6.00 Build 0)  -->
<svg version="1.1" id="Camada_1" xmlns="http://www.w3.org/2000/svg" xmlns:xlink="http://www.w3.org/1999/xlink" x="0px" y="0px"
	 viewBox="0 0 1417.32 425.2" style="enable-background:new 0 0 1417.32 425.2;" xml:space="preserve">
<style type="text/css">
	.st0{fill-rule:evenodd;clip-rule:evenodd;fill:#161642;}
	.st1{fill-rule:evenodd;clip-rule:evenodd;fill:#CD1F26;}
	.st2{fill-rule:evenodd;clip-rule:evenodd;fill:#FFFFFF;}
</style>
<g>
	<path class="st0" d="M441.57,173.97h-56.66v17.97h34.99c-2.95,10.08-15.25,17.97-27.3,17.97c-16.66,0-30.38-14.35-30.38-30.5
		c0-16.16,13.72-30.37,30.38-30.37c10.13,0,19.23,6.33,25,14.35l17.43-10.21c-9.23-13.83-25-22.75-42.43-22.75
		c-27.82,0-50.5,22.1-50.5,48.99c0,27.01,22.69,48.99,50.5,48.99c25.25,0,46.91-17.19,48.97-41.36c0.13-1.94,0.26-3.75,0.26-5.43
		C441.83,179.53,441.7,176.56,441.57,173.97L441.57,173.97z M661.7,172.81l64.73,56.74v-97.33h-20.25v54.54l-64.6-57.65v97.46h20.12
		V172.81L661.7,172.81z M867.46,202.28l-18.84-7.37c-5.64,8.27-15.25,14.99-25.64,14.99c-16.66,0-30.12-14.35-30.12-30.5
		c0-16.16,13.46-30.37,30.12-30.37c10.38,0,20,6.59,25.64,14.73l18.84-7.37c-8.97-15.38-25.64-25.85-44.48-25.85
		c-27.82,0-50.5,21.97-50.5,48.86c0,27.01,22.69,48.99,50.5,48.99C841.83,228.39,858.49,217.92,867.46,202.28L867.46,202.28z
		 M915.06,228.26c25.38,0,41.79-15.77,41.79-39.94v-56.1h-20.25v56.1c0,17.84-13.59,22.36-21.53,22.36
		c-8.2,0-21.79-4.52-21.79-22.36v-56.1h-20.25v56.1C873.01,212.49,889.55,228.26,915.06,228.26L915.06,228.26z M989.82,226.58
		v-29.47h13.84c7.69,10.34,14.74,19.78,22.43,29.47h24.23c-7.56-10.08-16.15-21.46-24.23-31.67c11.66-5.04,19.1-16.29,19.1-29.99
		c0-19.39-13.72-32.83-33.84-32.83H969.7v94.48H989.82L989.82,226.58z M989.82,179.4v-29.6h21.53c11.92,0,13.72,10.21,13.72,15.12
		c0,9.82-7.43,14.48-13.72,14.48H989.82L989.82,179.4z M1061.26,198.01l-10.77,15.64c8.72,7.5,22.05,14.74,42.3,14.74
		c22.18,0,37.3-9.69,37.3-29.34c0-25.33-24.23-27.27-39.48-30.5c-8.46-1.81-18.59-3.36-18.59-10.08c0-7.5,10.25-9.31,16.15-9.31
		c9.1,0,18.46,3.88,26.53,9.69l11.28-15.51c-10.25-7.63-20.64-12.67-37.04-12.67c-16.54,0-37.17,6.07-37.17,28.57
		c0,22.62,25.38,27.01,37.17,28.95c10.9,1.94,20.89,3.88,20.89,11.37c0,5.3-6.15,10.47-17.3,10.47
		C1081.76,210.04,1068.05,203.7,1061.26,198.01L1061.26,198.01z M1182.55,228.39c27.94,0,50.63-21.97,50.63-49.12
		c0-26.88-22.69-48.99-50.63-48.99c-27.82,0-50.38,22.1-50.38,48.99C1132.18,206.42,1154.74,228.39,1182.55,228.39L1182.55,228.39z
		 M1182.55,148.9c16.79,0,30.25,14.22,30.25,30.37c0,16.29-13.46,30.63-30.25,30.63c-16.66,0-30.25-14.35-30.25-30.63
		C1152.3,163.12,1165.89,148.9,1182.55,148.9L1182.55,148.9z M1247.83,198.01l-10.77,15.64c8.72,7.5,22.05,14.74,42.3,14.74
		c22.18,0,37.3-9.69,37.3-29.34c0-25.33-24.23-27.27-39.48-30.5c-8.46-1.81-18.59-3.36-18.59-10.08c0-7.5,10.25-9.31,16.15-9.31
		c9.1,0,18.46,3.88,26.53,9.69l11.28-15.51c-10.25-7.63-20.64-12.67-37.04-12.67c-16.54,0-37.17,6.07-37.17,28.57
		c0,22.62,25.38,27.01,37.17,28.95c10.9,1.94,20.89,3.88,20.89,11.37c0,5.3-6.15,10.47-17.3,10.47
		C1268.34,210.04,1254.63,203.7,1247.83,198.01z"/>
	<path class="st0" d="M472.95,226.58v-29.47h13.84c7.69,10.34,14.74,19.78,22.43,29.47h24.23c-7.56-10.08-16.15-21.46-24.23-31.67
		c11.66-5.04,19.1-16.29,19.1-29.99c0-19.39-13.72-32.83-33.84-32.83h-41.66v94.48H472.95L472.95,226.58z M472.95,179.4v-29.6h21.53
		c11.92,0,13.72,10.21,13.72,15.12c0,9.82-7.43,14.48-13.72,14.48H472.95L472.95,179.4z M535.31,226.58h22.3l7.18-14.48h43.71
		l7.43,14.48h22.18l-51.4-97.46L535.31,226.58L535.31,226.58z M574.79,194.65l11.92-24.69l12.05,24.69H574.79z"/>
	<path class="st1" d="M332.66,221.15c0,61.46-49.83,111.29-111.29,111.29s-111.29-49.83-111.29-111.29
		c0-61.47,49.83-111.29,111.29-111.29C282.83,109.86,332.66,159.68,332.66,221.15z"/>
	<path class="st2" d="M220.6,244.76l0.36-36.75l93.71,0.91c0.07,1.19,0.26,2.41,0.49,4.15c0.35,2.53,0.34,3.42,0.55,6.17
		c2.11,26.6-8.55,53.55-24.74,70.04c-16.22,16.48-38.87,24.6-68,24.32c-14.33-0.14-27.04-2.39-38.12-6.79
		c-11.12-4.36-21.03-11-29.67-19.87c-8.32-8.46-14.69-18.46-19.23-29.95c-4.5-11.5-6.69-23.54-6.57-36.08
		c0.13-13.08,2.51-25.08,7.11-36.04c4.6-10.95,11.41-20.74,20.43-29.44c8.94-8.46,19.18-14.82,30.67-19.12
		c11.49-4.26,23.87-6.35,37.18-6.22c17.3,0.17,33.16,2.65,45.78,10.63c30.8,19.45,39.28,47.62,39.75,49.81l-48.39,0.26
		c-4.91-6.83-10.47-11.92-16.66-15.29c-6.23-3.38-13.18-5.11-20.87-5.19c-14.42-0.14-25.79,4.53-34.16,13.98
		c-8.37,9.49-12.66,22.48-12.82,39c-0.16,16.68,3.87,29.88,12.05,39.53c8.18,9.69,19.47,14.58,33.88,14.72
		c12.19,0.12,22.43-2.77,30.65-8.66c8.21-5.85,13.07-13.74,14.52-23.65L220.6,244.76z"/>
	<path class="st1" d="M386.39,238.67c-12.2,0-22.66,4.3-31.36,12.91c-8.63,8.63-12.96,18.97-12.96,30.99
		c0,12.07,4.33,22.37,12.96,30.93c8.63,8.43,19.09,12.68,31.36,12.71c12.24,0,22.7-4.24,31.38-12.71
		c8.7-8.52,13.05-18.84,13.05-30.93c0-12.05-4.35-22.39-13.05-30.99C409.05,242.96,398.59,238.67,386.39,238.67L386.39,238.67z
		 M386.39,256.19c7.31,0,13.57,2.56,18.79,7.7c5.26,5.18,7.87,11.36,7.87,18.57c0,7.28-2.61,13.48-7.87,18.58
		c-5.26,5.08-11.51,7.65-18.79,7.65c-7.39,0-13.66-2.56-18.84-7.65c-5.22-5.14-7.81-11.34-7.81-18.58c0-7.17,2.59-13.35,7.81-18.57
		C372.69,258.75,378.97,256.19,386.39,256.19L386.39,256.19z M435.27,237.48v88.31h17.55v-47.96l52.74,49.61v-88.35h-17.62v47.96
		L435.27,237.48L435.27,237.48z M513.37,239.31v86.37h52.68v-17.23h-35.14v-69.14H513.37L513.37,239.31z M570.65,325.68h17.55
		v-86.37h-17.55V325.68L570.65,325.68z M596.04,237.48v88.31h17.55v-47.96l52.74,49.61v-88.35H648.7v47.96L596.04,237.48
		L596.04,237.48z M674.14,239.1v86.68h52.68v-17.23h-35.14v-17.47h26.34v-17.3h-26.34v-17.38h35.14v-17.3H674.14z"/>
</g>
</svg>
